<?xml version="1.0" encoding="utf-8"?>
<!-- Generator: Adobe Illustrator 26.0.2, SVG Export Plug-In . SVG Version: 6.00 Build 0)  -->
<svg version="1.1" id="レイヤー_1" xmlns="http://www.w3.org/2000/svg" xmlns:xlink="http://www.w3.org/1999/xlink" x="0px"
	 y="0px" viewBox="0 0 559.17 256" style="enable-background:new 0 0 559.17 256;" xml:space="preserve">
<style type="text/css">
	.st0{fill:#99CADD;}
	.st1{fill:#EDD598;}
	.st2{fill:#EFDD92;}
	.st3{fill:#3A5F84;}
	.st4{font-family:'BrushScriptMT';}
	.st5{font-size:106.0885px;}
	.st6{font-size:99.848px;}
</style>
<path class="st0" d="M181.37,163.65c0,50.9-33.57,78.91-86.84,78.91S7.7,220.02,7.7,165.63c0-50.9,50.3-102.28,92.99-157.58
	C130.73,62.43,181.37,112.75,181.37,163.65z"/>
<polygon class="st1" points="137.24,225.41 135.14,203.71 150.27,186.98 151.57,208.9 "/>
<polygon class="st2" points="56.11,149.17 39.1,135.54 37.66,113.03 54.28,127.39 "/>
<text transform="matrix(1 0 0 1 46.887 136.5762)" class="st3 st4 st5">K</text>
<text transform="matrix(1 0 0 1 94.5355 217.1367)" class="st3 st4 st6">B</text>
<g>
	<text transform="matrix(1 0 0 1 197.4776 161.9247)" class="st3 st4 st5">Kou Bisin</text>
</g>
</svg>
